<svg width="64" height="53" viewBox="0 0 64 53" fill="none" xmlns="http://www.w3.org/2000/svg">
<path d="M63.6 26.5006C63.6 27.9955 62.4965 29.2305 61.0716 29.4116L60.7091 29.4345L2.89091 29.4345C1.71913 29.4345 0.666836 28.7186 0.219709 27.6194C0.0732364 27.2595 0 26.88 0 26.5006C0 25.8649 0.203434 25.2347 0.594689 24.7185L0.851855 24.4234L24.1719 0.854267C25.3012 -0.288002 27.1321 -0.2841 28.2577 0.862083C29.2894 1.91634 29.3754 3.56555 28.5097 4.71294L28.25 5.0126L9.89076 23.5667L60.7091 23.5667C62.3049 23.5667 63.6 24.8811 63.6 26.5006ZM28.2504 47.9874C29.3836 49.1297 29.3836 50.9878 28.2581 52.1379C27.2263 53.1886 25.6019 53.2794 24.4654 52.4074L24.1684 52.1457L11.3096 39.1465C10.7392 38.5715 10.4578 37.8204 10.4578 37.0654C10.4578 36.3182 10.7392 35.5711 11.3019 34.996C12.3336 33.9418 13.9549 33.8506 15.0908 34.7256L15.3877 34.9882L28.2504 47.9874Z" fill="black" fill-opacity="0.5"/>
</svg>
