<svg width="37" height="37" viewBox="0 0 37 37" fill="none" xmlns="http://www.w3.org/2000/svg">
<circle cx="18.5" cy="18.5" r="18.5" fill="#B8B7B7"/>
<path d="M19.216 9.76C19.648 9.76 19.968 9.832 20.176 9.976C20.384 10.104 20.512 10.272 20.56 10.48C20.608 10.704 20.632 10.952 20.632 11.224L20.632 20.152C20.632 20.408 20.608 20.64 20.56 20.848C20.496 21.072 20.368 21.248 20.176 21.376C19.968 21.504 19.64 21.568 19.192 21.568C18.744 21.568 18.424 21.504 18.232 21.376C18.024 21.248 17.896 21.072 17.848 20.848C17.8 20.624 17.776 20.376 17.776 20.104L17.776 11.2C17.776 10.928 17.8 10.68 17.848 10.456C17.896 10.248 18.024 10.08 18.232 9.952C18.424 9.824 18.752 9.76 19.216 9.76ZM19.216 23.896C19.68 23.896 20.024 23.96 20.248 24.088C20.456 24.232 20.592 24.424 20.656 24.664C20.704 24.904 20.728 25.168 20.728 25.456C20.728 25.76 20.704 26.024 20.656 26.248C20.592 26.472 20.448 26.648 20.224 26.776C20 26.92 19.656 26.992 19.192 26.992C18.712 26.992 18.368 26.92 18.16 26.776C17.952 26.632 17.816 26.44 17.752 26.2C17.688 25.976 17.656 25.712 17.656 25.408C17.656 25.136 17.688 24.88 17.752 24.64C17.816 24.4 17.952 24.216 18.16 24.088C18.368 23.96 18.72 23.896 19.216 23.896Z" fill="#2E263B"/>
</svg>
