<svg width="36" height="40" viewBox="0 0 36 40" fill="none" xmlns="http://www.w3.org/2000/svg">
<path d="M5.614 8.8829C16.267 6.20841 29.5113 6.37239 32.5722 9.85796C35.6331 13.3435 35.57 24.9984 31.992 28.1964C28.416 31.3944 12.886 31.6984 7.966 28.1964C2.768 24.4944 5.784 13.1064 5.614 6.20841C5.716 2.34841 1.526 1.72241 1.526 1.72241" stroke="#2E263B" stroke-width="2" stroke-linecap="round" stroke-linejoin="round"/>
<path d="M22.5378 17.4616H28.0838" stroke="#2E263B" stroke-width="2" stroke-linecap="round" stroke-linejoin="round"/>
<path fill-rule="evenodd" clip-rule="evenodd" d="M8.7536 36.277C9.3536 36.277 9.84161 36.765 9.84161 37.365C9.84161 37.967 9.3536 38.455 8.7536 38.455C8.1516 38.455 7.6636 37.967 7.6636 37.365C7.6636 36.765 8.1516 36.277 8.7536 36.277Z" fill="#2E263B" stroke="#2E263B" stroke-width="2" stroke-linecap="round" stroke-linejoin="round"/>
<path fill-rule="evenodd" clip-rule="evenodd" d="M29.4166 36.277C30.0186 36.277 30.5066 36.765 30.5066 37.365C30.5066 37.967 30.0186 38.455 29.4166 38.455C28.8166 38.455 28.3286 37.967 28.3286 37.365C28.3286 36.765 28.8166 36.277 29.4166 36.277Z" fill="#2E263B" stroke="#2E263B" stroke-width="2" stroke-linecap="round" stroke-linejoin="round"/>
</svg>
