<svg width="31" height="41" viewBox="0 0 31 41" fill="none" xmlns="http://www.w3.org/2000/svg">
<path fill-rule="evenodd" clip-rule="evenodd" d="M15.4306 39.3552C8.18637 39.3552 2 38.2279 2 33.7132C2 29.1986 8.14712 25.0309 15.4306 25.0309C22.6747 25.0309 28.8611 29.1582 28.8611 33.6729C28.8611 38.1857 22.714 39.3552 15.4306 39.3552Z" stroke="#4E4263" stroke-width="2.5" stroke-linecap="round" stroke-linejoin="round"/>
<path fill-rule="evenodd" clip-rule="evenodd" d="M15.4164 18.7748C20.1703 18.7748 24.0234 14.9217 24.0234 10.1678C24.0234 5.41382 20.1703 1.55893 15.4164 1.55893C10.6624 1.55893 6.80748 5.41382 6.80748 10.1678C6.79148 14.9056 10.6178 18.7587 15.3557 18.7748C15.3771 18.7748 15.3967 18.7748 15.4164 18.7748Z" stroke="#4E4263" stroke-width="2.5" stroke-linecap="round" stroke-linejoin="round"/>
</svg>
