<svg width="31" height="34" viewBox="0 0 31 34" fill="none" xmlns="http://www.w3.org/2000/svg">
<path fill-rule="evenodd" clip-rule="evenodd" d="M15.8376 12.67C18.0856 12.67 19.9074 14.4919 19.9074 16.7399C19.9074 18.9879 18.0856 20.8098 15.8376 20.8098C13.5896 20.8098 11.7677 18.9879 11.7677 16.7399C11.7677 14.4919 13.5896 12.67 15.8376 12.67Z" stroke="#4E4263" stroke-width="2.5" stroke-linecap="round" stroke-linejoin="round"/>
<path fill-rule="evenodd" clip-rule="evenodd" d="M29.1346 9.00756C28.0218 7.06664 25.5584 6.40251 23.633 7.52332C21.9582 8.4962 19.8652 7.2789 19.8652 5.33154C19.8652 3.09152 18.0611 1.27441 15.8372 1.27441C13.6132 1.27441 11.8091 3.09152 11.8091 5.33154C11.8091 7.2789 9.71609 8.4962 8.04293 7.52332C6.11592 6.40251 3.65249 7.06664 2.53971 9.00756C1.42853 10.9485 2.08789 13.4297 4.0149 14.5489C5.68805 15.5234 5.68805 17.9564 4.0149 18.9309C2.08789 20.0517 1.42853 22.5329 2.53971 24.4722C3.65249 26.4132 6.11592 27.0773 8.04133 25.9581C9.71449 24.9836 11.8091 26.2009 11.8091 28.1483C11.8091 30.3883 13.6132 32.2054 15.8372 32.2054C18.0611 32.2054 19.8652 30.3883 19.8652 28.1483C19.8652 26.2009 21.9582 24.9836 23.633 25.9581C25.5584 27.0773 28.0218 26.4132 29.1346 24.4722C30.2474 22.5329 29.5864 20.0517 27.661 18.9309C25.9879 17.9564 25.9863 15.5234 27.661 14.5489C29.5864 13.4297 30.2474 10.9485 29.1346 9.00756Z" stroke="#4E4263" stroke-width="2.5" stroke-linecap="round" stroke-linejoin="round"/>
</svg>
